<?xml version="1.0" encoding="utf-8"?>
<!-- Generator: Adobe Illustrator 24.0.1, SVG Export Plug-In . SVG Version: 6.00 Build 0)  -->
<svg version="1.1" id="Capa_1" xmlns="http://www.w3.org/2000/svg" xmlns:xlink="http://www.w3.org/1999/xlink" x="0px" y="0px"
	 viewBox="0 0 352 317.5" style="enable-background:new 0 0 352 317.5;" xml:space="preserve">
<style type="text/css">
	.st0{fill:url(#SVGID_1_);}
	.st1{fill:url(#SVGID_2_);}
	.st2{opacity:0.8;fill:url(#SVGID_3_);enable-background:new    ;}
	.st3{opacity:0.8;fill:url(#SVGID_4_);enable-background:new    ;}
	.st4{opacity:0.8;fill:url(#SVGID_5_);enable-background:new    ;}
	.st5{opacity:0.8;fill:url(#SVGID_6_);enable-background:new    ;}
	.st6{opacity:0.8;fill:url(#SVGID_7_);enable-background:new    ;}
	.st7{opacity:0.8;fill:url(#SVGID_8_);enable-background:new    ;}
	.st8{fill:#CCE0F0;}
	.st9{opacity:0.8;fill:url(#SVGID_9_);enable-background:new    ;}
	.st10{fill:#FFFFFF;}
	.st11{fill:url(#SVGID_10_);}
	.st12{fill:#809297;}
	.st13{fill:url(#XMLID_2_);}
	.st14{fill:#8B9FA3;}
	.st15{fill:url(#XMLID_3_);}
	.st16{fill:#92A7AD;}
	.st17{fill:url(#XMLID_4_);}
	.st18{opacity:0.1;fill:#FFFFFF;enable-background:new    ;}
	.st19{fill:#FCC872;}
	.st20{fill:url(#SVGID_11_);}
	.st21{fill:url(#XMLID_5_);}
	.st22{fill:url(#SVGID_12_);}
	.st23{fill:url(#SVGID_13_);}
	.st24{fill:url(#SVGID_14_);}
	.st25{opacity:0.7;fill:url(#SVGID_15_);enable-background:new    ;}
	.st26{opacity:0.7;fill:url(#SVGID_16_);enable-background:new    ;}
	.st27{fill:url(#SVGID_17_);}
	.st28{opacity:0.8;fill:url(#SVGID_18_);enable-background:new    ;}
	.st29{fill:url(#SVGID_19_);}
	.st30{fill:#F9B215;}
	.st31{fill:#F59E19;}
	.st32{fill:#FEC92A;}
	.st33{opacity:0.7;fill:url(#SVGID_20_);enable-background:new    ;}
	.st34{opacity:0.7;fill:url(#SVGID_21_);enable-background:new    ;}
	.st35{fill:url(#SVGID_22_);}
	.st36{opacity:0.8;fill:url(#SVGID_23_);enable-background:new    ;}
	.st37{fill:url(#SVGID_24_);}
	.st38{fill:#D3302F;}
	.st39{opacity:0.8;fill:url(#SVGID_25_);enable-background:new    ;}
	.st40{fill:#EA5351;}
	.st41{fill:none;stroke:#FFFFFF;stroke-width:1.0404;stroke-miterlimit:9.9998;}
	.st42{fill:none;stroke:#FFFFFF;stroke-width:1.0404;stroke-miterlimit:10;}
	.st43{opacity:0.7;fill:url(#SVGID_26_);enable-background:new    ;}
	.st44{opacity:0.7;fill:url(#SVGID_27_);enable-background:new    ;}
	.st45{fill:url(#SVGID_28_);}
	.st46{fill:#26284C;}
	.st47{fill:#1A1B37;}
	.st48{fill:#F5F5F5;}
	.st49{fill:#7C92BA;}
	.st50{fill:#6B7FA3;}
	.st51{fill:none;stroke:#FFFFFF;stroke-width:0.7521;stroke-miterlimit:10;}
	.st52{opacity:0.8;fill:url(#SVGID_29_);enable-background:new    ;}
	.st53{opacity:0.8;fill:url(#SVGID_30_);enable-background:new    ;}
	.st54{opacity:0.8;fill:url(#SVGID_31_);enable-background:new    ;}
	.st55{fill:url(#SVGID_32_);}
	.st56{fill:url(#SVGID_33_);}
	.st57{opacity:0.7;fill:url(#SVGID_34_);enable-background:new    ;}
	.st58{fill:url(#SVGID_35_);}
	.st59{fill:none;stroke:#FFFFFF;stroke-width:1.0404;stroke-linecap:round;stroke-linejoin:round;stroke-miterlimit:10;}
	.st60{fill:#FFEE5A;}
	.st61{fill:none;stroke:#FFFFFF;stroke-width:0.5202;stroke-linecap:round;stroke-linejoin:round;stroke-miterlimit:10;}
	.st62{fill:url(#SVGID_36_);}
</style>
<g>
	
		<linearGradient id="SVGID_1_" gradientUnits="userSpaceOnUse" x1="173.9201" y1="530.1837" x2="173.9201" y2="839.7347" gradientTransform="matrix(1 0 0 -1 0 841.8898)">
		<stop  offset="1.860120e-03" style="stop-color:#8B4192"/>
		<stop  offset="1" style="stop-color:#2F2142"/>
	</linearGradient>
	<path class="st0" d="M341.9,235.6c-0.5,2.8-1.1,5.6-1.7,8.4c-0.5,2.1-1,4.2-1.6,6.4c-3.2,11.6-7.8,23.2-14.1,33.4
		c-6.5,10.5-14.8,19.6-25.3,25.9c-5.7,3.4-11.8,5.9-18.1,7.7H65.5c-20.9-11.3-39.1-31.2-35.2-54.6c3.5-20.3,6.7-40.5-0.4-59.3
		c-5.2-13.6-15.4-24.8-21.1-38.2c-14.2-33.2,3.7-63.3,30.2-81.8c1-0.7,1.9-1.3,2.9-2c0.2-0.1,0.5-0.3,0.7-0.5
		c1.1-0.7,2.1-1.4,3.2-2.1c2.3-1.6,4.5-3.3,6.6-5h0c1.6-1.3,3.2-2.7,4.8-4.1c0.4-0.3,0.8-0.6,1.1-1c2.2-1.9,4.3-3.9,6.4-6
		c1.1-1.1,2.2-2.2,3.3-3.2c8.5-8.5,16.7-17.4,25.6-25.2c8.5-7.4,17.8-13.7,28.7-17.7c6.8-2.5,13.8-4.2,20.9-5.2
		c28-3.9,57,3.5,79.7,20.9c1.1,0.9,2.2,1.7,3.3,2.6c11.7,9.6,22.5,21.8,27.3,35.9c6,17.8,14.9,34.9,31,45.5
		c13.3,8.7,26,14.5,36.6,27.2c3.8,4.6,7.1,9.4,9.9,14.4c2.3,4.1,4.3,8.3,5.9,12.6c2.2,5.8,3.9,11.7,5,17.7
		C344.9,203.9,344.7,219.9,341.9,235.6z"/>
	
		<linearGradient id="SVGID_2_" gradientUnits="userSpaceOnUse" x1="20.9459" y1="533.2463" x2="4.0523" y2="639.6758" gradientTransform="matrix(1 0 0 -1 0 841.8898)">
		<stop  offset="1.860120e-03" style="stop-color:#8B4192"/>
		<stop  offset="1" style="stop-color:#2F2142"/>
	</linearGradient>
	<path class="st1" d="M6.4,271.6c-0.3,5.9,0,12.1,3,17.2c2.5,4.3,8.3,7.6,12.3,4.7c3.1-2.2,3.3-6.7,2.2-10.3c-1-3.6-3-7-3.2-10.8
		c-0.4-5.9,6.6-21-3.9-21.7C7.3,250,6.7,265.8,6.4,271.6z"/>
	<g>
		
			<linearGradient id="SVGID_3_" gradientUnits="userSpaceOnUse" x1="84.5847" y1="531.0068" x2="87.8068" y2="575.2383" gradientTransform="matrix(1 0 0 -1 0 841.8898)">
			<stop  offset="0" style="stop-color:#FFFFFF;stop-opacity:0"/>
			<stop  offset="1" style="stop-color:#653089"/>
		</linearGradient>
		<ellipse class="st2" cx="85.9" cy="292.5" rx="20.3" ry="8"/>
		
			<linearGradient id="SVGID_4_" gradientUnits="userSpaceOnUse" x1="188.3449" y1="529.9502" x2="191.567" y2="574.1813" gradientTransform="matrix(1 0 0 -1 0 841.8898)">
			<stop  offset="0" style="stop-color:#FFFFFF;stop-opacity:0"/>
			<stop  offset="1" style="stop-color:#653089"/>
		</linearGradient>
		<ellipse class="st3" cx="189.7" cy="293.5" rx="20.3" ry="8"/>
		
			<linearGradient id="SVGID_5_" gradientUnits="userSpaceOnUse" x1="196.4025" y1="577.8359" x2="52.2842" y2="579.5934" gradientTransform="matrix(1 0 0 -1 0 841.8898)">
			<stop  offset="0" style="stop-color:#FFFFFF;stop-opacity:0"/>
			<stop  offset="1" style="stop-color:#653089"/>
		</linearGradient>
		<polygon class="st4" points="72.4,257.2 90.8,257.2 131.7,276.2 126.4,288.3 145.5,288.3 187.1,262.5 136.2,244.7 105.9,237.9 		
			"/>
		
			<linearGradient id="SVGID_6_" gradientUnits="userSpaceOnUse" x1="154.6731" y1="722.1877" x2="76.7558" y2="634.897" gradientTransform="matrix(1 0 0 -1 0 841.8898)">
			<stop  offset="0" style="stop-color:#FFFFFF;stop-opacity:0"/>
			<stop  offset="1" style="stop-color:#653089"/>
		</linearGradient>
		<rect x="76.2" y="118.1" class="st5" width="100.8" height="66.1"/>
		
			<linearGradient id="SVGID_7_" gradientUnits="userSpaceOnUse" x1="393.3357" y1="591.1497" x2="227.8025" y2="591.1497" gradientTransform="matrix(1 0 0 -1 0 841.8898)">
			<stop  offset="0" style="stop-color:#FFFFFF;stop-opacity:0"/>
			<stop  offset="1" style="stop-color:#653089"/>
		</linearGradient>
		<path class="st6" d="M341.9,217.7v17.9c-0.5,2.8-1.1,5.6-1.7,8.4c-0.5,2.1-1,4.2-1.6,6.4c-3.2,11.6-7.8,23.2-14.1,33.4h-52.7
			v-66.1H341.9z"/>
		
			<linearGradient id="SVGID_8_" gradientUnits="userSpaceOnUse" x1="369.1204" y1="640.7698" x2="192.7174" y2="640.7698" gradientTransform="matrix(1 0 0 -1 0 841.8898)">
			<stop  offset="0" style="stop-color:#FFFFFF;stop-opacity:0"/>
			<stop  offset="1" style="stop-color:#653089"/>
		</linearGradient>
		<path class="st7" d="M341.9,188.6v47c-0.5,2.8-1.1,5.6-1.7,8.4h-147v-85.8H331c2.3,4.1,4.3,8.3,5.9,12.6
			C339.1,176.6,340.8,182.5,341.9,188.6z"/>
		<g>
			<path class="st8" d="M226.2,223.2V176H120.7v47.2l0,0c0,7.8,5.1,15.6,15.5,21.5c20.6,11.9,54,11.9,74.6,0
				C221.1,238.7,226.2,230.9,226.2,223.2z"/>
			
				<linearGradient id="SVGID_9_" gradientUnits="userSpaceOnUse" x1="165.6044" y1="627.1072" x2="244.9234" y2="627.1072" gradientTransform="matrix(1 0 0 -1 0 841.8898)">
				<stop  offset="0" style="stop-color:#FFFFFF;stop-opacity:0"/>
				<stop  offset="1" style="stop-color:#653089"/>
			</linearGradient>
			<path class="st9" d="M226.2,223.2V176H120.7v47.2l0,0c0,7.8,5.1,15.6,15.5,21.5c20.6,11.9,54,11.9,74.6,0
				C221.1,238.7,226.2,230.9,226.2,223.2z"/>
			<ellipse class="st10" cx="173.5" cy="175.9" rx="52.8" ry="30.5"/>
			<g>
				
					<linearGradient id="SVGID_10_" gradientUnits="userSpaceOnUse" x1="173.476" y1="720.7939" x2="173.476" y2="616.3491" gradientTransform="matrix(1 0 0 -1 0 841.8898)">
					<stop  offset="1.694780e-03" style="stop-color:#4BBBBA"/>
					<stop  offset="1" style="stop-color:#49BABA;stop-opacity:0"/>
				</linearGradient>
				<ellipse class="st11" cx="173.5" cy="170" rx="52.8" ry="30.5"/>
				<g>
					<path id="XMLID_914_" class="st12" d="M186.3,160.9c-0.2,5.5-6.3,9.8-13.6,9.5c-7.3-0.2-13.1-4.9-12.9-10.4
						c0.2-5.5,6.3-9.8,13.6-9.5C180.7,150.8,186.5,155.4,186.3,160.9z"/>
					
						<linearGradient id="XMLID_2_" gradientUnits="userSpaceOnUse" x1="159.8414" y1="681.4047" x2="186.3405" y2="681.4047" gradientTransform="matrix(1 0 0 -1 0 841.8898)">
						<stop  offset="3.946110e-03" style="stop-color:#FFFFFF;stop-opacity:0"/>
						<stop  offset="1" style="stop-color:#92A7AD"/>
					</linearGradient>
					<path id="XMLID_913_" class="st13" d="M186.3,160.9c-0.2,5.5-6.3,9.8-13.6,9.5c-7.3-0.2-13.1-4.9-12.9-10.4
						c0.2-5.5,6.3-9.8,13.6-9.5C180.7,150.8,186.5,155.4,186.3,160.9z"/>
					<path id="XMLID_912_" class="st14" d="M195.1,149.1c-0.2,6.7-10.1,11.8-22,11.4s-21.4-6.2-21.2-12.9s10.1-11.8,22-11.4
						S195.3,142.4,195.1,149.1z"/>
					
						<linearGradient id="XMLID_3_" gradientUnits="userSpaceOnUse" x1="166.084" y1="693.5447" x2="191.1461" y2="693.5447" gradientTransform="matrix(1 0 0 -1 0 841.8898)">
						<stop  offset="3.946110e-03" style="stop-color:#FFFFFF;stop-opacity:0"/>
						<stop  offset="1" style="stop-color:#92A7AD"/>
					</linearGradient>
					<path id="XMLID_907_" class="st15" d="M195.1,149.1c-0.2,6.7-10.1,11.8-22,11.4s-21.4-6.2-21.2-12.9s10.1-11.8,22-11.4
						S195.3,142.4,195.1,149.1z"/>
					
						<ellipse id="XMLID_906_" transform="matrix(3.360119e-02 -0.9994 0.9994 3.360119e-02 27.1517 309.7341)" class="st16" cx="173.7" cy="140.8" rx="12.1" ry="21.6"/>
					
						<linearGradient id="XMLID_4_" gradientUnits="userSpaceOnUse" x1="162.1224" y1="701.0648" x2="192.2788" y2="701.0648" gradientTransform="matrix(1 0 0 -1 0 841.8898)">
						<stop  offset="3.946110e-03" style="stop-color:#FFFFFF;stop-opacity:0"/>
						<stop  offset="1" style="stop-color:#92A7AD"/>
					</linearGradient>
					<path id="XMLID_905_" class="st17" d="M195.4,141.6c-0.2,6.7-10.1,11.8-22,11.4s-21.4-6.2-21.2-12.9s10.1-11.8,22-11.4
						S195.6,134.9,195.4,141.6z"/>
					<path id="XMLID_904_" class="st18" d="M155.4,143.6c-0.6,0.3-1.5-0.2-1.9-1.1c-0.5-0.9-0.4-1.9,0.2-2.2
						c0.6-0.3,1.5,0.2,1.9,1.1C156.1,142.3,156,143.3,155.4,143.6z"/>
					<path id="XMLID_897_" class="st18" d="M156.6,145.4c-0.4,0.2-0.9,0.1-1-0.3c-0.2-0.3,0-0.8,0.4-1c0.4-0.2,0.9-0.1,1,0.3
						C157.1,144.8,156.9,145.2,156.6,145.4z"/>
					<path id="XMLID_896_" class="st18" d="M155.5,151.7c-0.6,0.3-1.5-0.2-1.9-1.1c-0.5-0.9-0.4-1.9,0.2-2.2
						c0.6-0.3,1.5,0.2,1.9,1.1C156.2,150.4,156.1,151.4,155.5,151.7z"/>
					<path id="XMLID_895_" class="st18" d="M156.6,153.5c-0.4,0.2-0.9,0.1-1-0.3c-0.2-0.3,0-0.8,0.4-1c0.4-0.2,0.9-0.1,1,0.3
						C157.2,152.8,157,153.3,156.6,153.5z"/>
					<path id="XMLID_894_" class="st19" d="M212.8,90.1c0.1-21.8-17.4-36.3-39.1-36.4c-21.7-0.1-39.4,14.1-39.6,35.9
						c-0.1,21.4,10.8,24.6,16.4,35.6c1.7,3.4,1.1,6.5,1.1,6.5c0,8.3,9,13,21.5,13.1c12.6,0.1,21.7-4.5,21.7-12.8
						c0,0-0.6-3.1,1.2-6.5C201.7,114.6,212.7,111.5,212.8,90.1z"/>
					
						<linearGradient id="SVGID_11_" gradientUnits="userSpaceOnUse" x1="164.3575" y1="756.8841" x2="198.4832" y2="716.502" gradientTransform="matrix(1 0 0 -1 0 841.8898)">
						<stop  offset="3.946110e-03" style="stop-color:#FFFFFF;stop-opacity:0"/>
						<stop  offset="1" style="stop-color:#FCC872"/>
					</linearGradient>
					<path class="st20" d="M212.8,90.1c0,1.3-0.1,2.6-0.1,3.8c-0.1,0.9-0.2,1.8-0.3,2.6c-0.6,4.3-1.7,7.7-3.1,10.6
						c0,0.1-0.1,0.1-0.1,0.2c-3.6,7.1-9.1,10.9-12.8,17.4c-0.1,0.2-0.3,0.5-0.4,0.8c-1.8,3.4-1.2,6.5-1.2,6.5c0,0.3,0,0.6-0.1,1
						c0,0.1,0,0.3,0,0.4c0,0.1,0,0.1,0,0.2c0,0.1,0,0.3-0.1,0.4c0,0.1,0,0.3-0.1,0.4c0,0.2-0.1,0.4-0.1,0.6c0,0,0,0,0,0
						c-0.2,0.5-0.4,1-0.6,1.5c0,0,0,0.1,0,0.1c-2.1,4.1-7.2,6.7-14,7.7c-2.1,0.3-4.3,0.5-6.6,0.4c-12.6-0.1-21.6-4.8-21.6-13.1
						c0,0,0.6-3-1.1-6.5c-5.6-11-16.5-14.2-16.4-35.6c0.1-21.8,17.9-36.1,39.6-35.9C195.4,53.8,213,68.3,212.8,90.1z"/>
					
						<linearGradient id="XMLID_5_" gradientUnits="userSpaceOnUse" x1="244.2127" y1="738.1444" x2="244.2127" y2="718.4524" gradientTransform="matrix(0.9996 -2.730000e-02 -2.730000e-02 -0.9996 -51.1845 824.43)">
						<stop  offset="3.946110e-03" style="stop-color:#FFFFFF;stop-opacity:0"/>
						<stop  offset="1" style="stop-color:#FCC872"/>
					</linearGradient>
					<path id="XMLID_828_" class="st21" d="M185.9,109c-0.7-4.1-5.3-9.6-8.8-4.2c-2.4,3.7-2.1,9-2.1,13.3v0.3c-0.4,0-0.8,0-1.2,0.1
						c-0.1,0-0.2,0-0.3,0c-0.1,0-0.2,0-0.3-0.1c-0.4,0-0.8,0-1.1-0.1v-0.2c0.1-3.8,0.1-7.6-1.1-11.2c-1.8-5.7-7-5.4-9.1-0.1
						c-2,5.1-0.1,9,3.4,11.3c1.4,0.9,3,1.6,4.8,2c0,0.1,0,0.2,0,0.3c0,2.8,0,5.6,0,8.4c0,2.5,0,5,0,7.5c0,1.1,0,2.2,0,3.4
						c0,1.7,0,3.3,0,5c0.7,0,1.4,0.1,2,0.1c0-1.7,0-3.4,0-5.1c0-1.1,0-2.3,0-3.4c0-2.5,0-5,0-7.5c0-2.8,0-5.5,0-8.3
						c0.4,0,0.8,0.1,1.2,0.1c0.1,0,0.2,0,0.3,0c0.1,0,0.2,0,0.3,0c0.4,0,0.8,0,1.2-0.1c0,2.8,0,5.5,0,8.3c0,2.5,0,5,0,7.5
						c0,1.1,0,2.2,0,3.4c0,0.3,0,0.5,0,0.8c0,1.5,0,2.9,0,4.4v0c0,0,0,0,0,0c0,0,0,0,0,0c0,0,0,0,0,0c0,0,0,0,0,0h0.1
						c0.2,0,0.5,0,0.7,0c0.2,0,0.4,0,0.6,0c0.2,0,0.4,0,0.5,0c0-1.7,0-3.3,0-5c0-0.5,0-1,0-1.5c0-0.6,0-1.2,0-1.8c0-2.5,0-5,0-7.5
						c0-2.8,0-5.7,0-8.5v-0.3C182.6,119.1,187,115.4,185.9,109z M163.3,110.8c0-2.3,2.3-9.1,5.1-5.1c2.2,3.1,1.9,8.1,1.7,12.3
						C166.5,117.3,163.3,115.2,163.3,110.8z M177.1,118.1c-0.1-4.2-0.4-9.2,1.9-12.3c2.9-4,5.1,2.9,5.1,5.1
						C183.9,115.3,180.7,117.4,177.1,118.1z"/>
					
						<linearGradient id="SVGID_12_" gradientUnits="userSpaceOnUse" x1="257.2806" y1="722.1045" x2="227.1273" y2="772.7622" gradientTransform="matrix(0.9996 -2.730000e-02 -2.730000e-02 -0.9996 -51.1845 824.43)">
						<stop  offset="3.946110e-03" style="stop-color:#FFFFFF;stop-opacity:0"/>
						<stop  offset="1" style="stop-color:#FFFFFF"/>
					</linearGradient>
					<path class="st22" d="M192.4,84.7c-10.6,6.5-28,7-39,1.1c-10.9-5.9-11.2-16-0.6-22.5s28-7,39-1.1
						C202.7,68.2,203,78.2,192.4,84.7z"/>
					
						<linearGradient id="SVGID_13_" gradientUnits="userSpaceOnUse" x1="152.6587" y1="731.5974" x2="120.071" y2="747.3789" gradientTransform="matrix(1 0 0 -1 0 841.8898)">
						<stop  offset="3.946110e-03" style="stop-color:#FFFFFF;stop-opacity:0"/>
						<stop  offset="1" style="stop-color:#FFFFFF"/>
					</linearGradient>
					<path class="st23" d="M139.6,101.1c1.8,5.3,5.3,10.2,8.9,14.3c3.8,4.3,8.4,8.6,9.1,14.3c0.1,0.8,0.1,1.6,0.5,2.3s1.3,1.2,2,0.9
						c0.4-0.2,0.6-0.5,0.8-0.9c1.5-2.5,2.1-5.6,1.5-8.5c-1-4.6-4.6-8-7.5-11.4c-2.9-3.3-5.4-7.6-6.3-12c-0.6-2.7-0.8-5.5-1.4-8.3
						c-0.3-1.3-0.7-2.6-1.5-3.7c-0.8-1.1-2-1.9-3.4-1.9c-1.4,0-2.7,1.1-3.4,2.3s-0.9,2.7-0.9,4.1C138.1,95.6,138.7,98.4,139.6,101.1
						z"/>
					
						<linearGradient id="SVGID_14_" gradientUnits="userSpaceOnUse" x1="168.7067" y1="697.3383" x2="196.4753" y2="712.2906" gradientTransform="matrix(1 0 0 -1 0 841.8898)">
						<stop  offset="3.946110e-03" style="stop-color:#FFFFFF;stop-opacity:0"/>
						<stop  offset="1" style="stop-color:#FCC872"/>
					</linearGradient>
					<path class="st24" d="M212.8,90.1c0,1.3,0,2.6-0.1,3.8c-0.1,0.9-0.2,1.8-0.3,2.6c-0.6,4.2-1.7,7.6-3.1,10.6
						c0,0.1-0.1,0.1-0.1,0.2c-3.6,7.1-9.1,10.9-12.8,17.4c-0.1,0.2-0.3,0.5-0.4,0.8c-1.8,3.4-1.2,6.5-1.2,6.5c0,0.3,0,0.6-0.1,1
						c0,0.1,0,0.3,0,0.4c0,0.1,0,0.1,0,0.2c0,0.1,0,0.3-0.1,0.4c0,0.1,0,0.3-0.1,0.4c0,0.2-0.1,0.4-0.1,0.6c0,0,0,0,0,0
						c-0.2,0.5-0.4,1-0.6,1.5c0,0,0,0.1,0,0.1c1.1,1.5,1.7,3.2,1.7,5c0,1.3-0.5,2.6-1.2,3.7c0.6,1.2,1,2.5,0.9,3.8
						c-0.1,4-3.7,7.4-9.1,9.5c0.2,0.8,0.3,1.6,0.3,2.4c-0.2,5.5-6.3,9.8-13.6,9.5c-0.4,0-0.8,0-1.2-0.1c1.6-1.9,3.4-3.7,4.3-5.5
						c3.2-6.3,3.6-13.6,3.9-20.5c0-0.1,0-0.3,0-0.4c0.3-5.8,0.6-11.6,1-17.4c0-0.6,0.1-1.2,0.3-1.7c0.7-1.6,2.7-1.9,4.4-2.3
						C203.8,118.2,211.3,104.5,212.8,90.1z"/>
					<path class="st19" d="M211.2,48.3c0,1.9-1.6,3.5-3.5,3.5s-3.5-1.6-3.5-3.5c0-1.9,1.6-3.5,3.5-3.5
						C209.6,44.8,211.2,46.4,211.2,48.3z"/>
					<path class="st19" d="M211.2,145.5c0,1.9-1.6,3.5-3.5,3.5s-3.5-1.6-3.5-3.5c0-1.9,1.6-3.5,3.5-3.5
						C209.6,142,211.2,143.5,211.2,145.5z"/>
					<circle class="st19" cx="144" cy="130.3" r="3.5"/>
					<circle class="st19" cx="215" cy="38" r="2.2"/>
					<circle class="st19" cx="211.2" cy="125.6" r="2.2"/>
					<circle class="st19" cx="149.7" cy="36.7" r="2.2"/>
					<circle class="st19" cx="217.3" cy="153" r="2.2"/>
					<circle class="st19" cx="138.2" cy="164.4" r="2.2"/>
				</g>
				<g>
					
						<linearGradient id="SVGID_15_" gradientUnits="userSpaceOnUse" x1="87.8822" y1="723.3173" x2="181.4195" y2="723.3173" gradientTransform="matrix(1 0 0 -1 0 841.8898)">
						<stop  offset="1.694780e-03" style="stop-color:#4BBBBA"/>
						<stop  offset="1" style="stop-color:#49BABA;stop-opacity:0"/>
					</linearGradient>
					<path class="st25" d="M226.2,170V36.7c0,7.8-5.1,15.6-15.5,21.5c-20.6,11.9-54,11.9-74.6,0c-10.3-6-15.4-13.7-15.4-21.5V170
						l0,0c0,7.8,5.1,15.6,15.4,21.5c20.6,11.9,54,11.9,74.6,0C221.1,185.6,226.2,177.8,226.2,170z"/>
					
						<linearGradient id="SVGID_16_" gradientUnits="userSpaceOnUse" x1="247.818" y1="723.3173" x2="182.1615" y2="723.3173" gradientTransform="matrix(1 0 0 -1 0 841.8898)">
						<stop  offset="1.694780e-03" style="stop-color:#4BBBBA"/>
						<stop  offset="1" style="stop-color:#49BABA;stop-opacity:0"/>
					</linearGradient>
					<path class="st26" d="M226.2,170V36.7c0,7.8-5.1,15.6-15.5,21.5c-20.6,11.9-54,11.9-74.6,0c-10.3-6-15.4-13.7-15.4-21.5V170
						l0,0c0,7.8,5.1,15.6,15.4,21.5c20.6,11.9,54,11.9,74.6,0C221.1,185.6,226.2,177.8,226.2,170z"/>
					
						<linearGradient id="SVGID_17_" gradientUnits="userSpaceOnUse" x1="173.476" y1="854.1714" x2="173.476" y2="749.7266" gradientTransform="matrix(1 0 0 -1 0 841.8898)">
						<stop  offset="1.694780e-03" style="stop-color:#4BBBBA"/>
						<stop  offset="1" style="stop-color:#49BABA;stop-opacity:0"/>
					</linearGradient>
					<ellipse class="st27" cx="173.5" cy="36.7" rx="52.8" ry="30.5"/>
				</g>
			</g>
			<path class="st10" d="M128.6,121.8L128.6,121.8c-2.2-1.3-3.6-3.7-3.6-6.2V67.1c0-1.1,1.1-1.7,2.1-1.2l0,0
				c2.3,1.3,3.7,3.8,3.7,6.4v48.3C130.8,121.7,129.6,122.4,128.6,121.8z"/>
			<path class="st10" d="M128.6,143.6L128.6,143.6c-2.2-1.3-3.6-3.7-3.6-6.2v-6.9c0-1.1,1.1-1.7,2.1-1.2l0,0
				c2.3,1.3,3.7,3.8,3.7,6.4v6.7C130.8,143.5,129.6,144.2,128.6,143.6z"/>
		</g>
		<g>
			<path class="st8" d="M307.9,263.3v-31.9h-71.3v31.9l0,0c0,5.3,3.5,10.5,10.5,14.6c13.9,8,36.5,8,50.5,0
				C304.4,273.9,307.9,268.6,307.9,263.3z"/>
			
				<linearGradient id="SVGID_18_" gradientUnits="userSpaceOnUse" x1="266.9185" y1="584.2247" x2="320.5492" y2="584.2247" gradientTransform="matrix(1 0 0 -1 0 841.8898)">
				<stop  offset="0" style="stop-color:#FFFFFF;stop-opacity:0"/>
				<stop  offset="1" style="stop-color:#653089"/>
			</linearGradient>
			<path class="st28" d="M307.9,263.3v-31.9h-71.3v31.9l0,0c0,5.3,3.5,10.5,10.5,14.6c13.9,8,36.5,8,50.5,0
				C304.4,273.9,307.9,268.6,307.9,263.3z"/>
			<ellipse class="st10" cx="272.2" cy="231.4" rx="35.7" ry="20.6"/>
			<g>
				
					<linearGradient id="SVGID_19_" gradientUnits="userSpaceOnUse" x1="272.236" y1="647.561" x2="272.236" y2="576.9418" gradientTransform="matrix(1 0 0 -1 0 841.8898)">
					<stop  offset="1.694780e-03" style="stop-color:#4BBBBA"/>
					<stop  offset="1" style="stop-color:#49BABA;stop-opacity:0"/>
				</linearGradient>
				<ellipse class="st29" cx="272.2" cy="227.4" rx="35.7" ry="20.6"/>
				<g>
					<path class="st19" d="M297.8,170c0,1.3-1.1,2.4-2.4,2.4s-2.4-1.1-2.4-2.4c0-1.3,1.1-2.4,2.4-2.4S297.8,168.7,297.8,170z"/>
					<circle class="st19" cx="293.1" cy="221.2" r="2.4"/>
					<path class="st19" d="M254.7,202.9c0,1.3-1.1,2.4-2.4,2.4s-2.4-1.1-2.4-2.4s1.1-2.4,2.4-2.4S254.7,201.6,254.7,202.9z"/>
					<path class="st19" d="M292.2,160c0,0.8-0.7,1.5-1.5,1.5s-1.5-0.7-1.5-1.5s0.7-1.5,1.5-1.5S292.2,159.2,292.2,160z"/>
					<path class="st19" d="M285.5,227.4c0,0.8-0.7,1.5-1.5,1.5s-1.5-0.7-1.5-1.5s0.7-1.5,1.5-1.5S285.5,226.6,285.5,227.4z"/>
					<path class="st19" d="M253.5,157.8c0,0.8-0.7,1.5-1.5,1.5s-1.5-0.7-1.5-1.5s0.7-1.5,1.5-1.5S253.5,157,253.5,157.8z"/>
					<path class="st19" d="M303.3,201.9c0,0.8-0.7,1.5-1.5,1.5s-1.5-0.7-1.5-1.5s0.7-1.5,1.5-1.5S303.3,201,303.3,201.9z"/>
					<path class="st19" d="M249.9,223.6c0,0.8-0.7,1.5-1.5,1.5s-1.5-0.7-1.5-1.5s0.7-1.5,1.5-1.5S249.9,222.8,249.9,223.6z"/>
					<g>
						<path class="st30" d="M294.6,196.1c0,0.1,0,0.2,0,0.3c0,1.4-0.1,2.7-0.4,3.9c-0.1,0.7-0.3,1.4-0.5,2.1
							c-0.9,2.8-2.5,4.9-4.5,6.1l0,0l-0.2,0.1c-0.1,0-0.2,0.1-0.3,0.2l-5.5,3.2l-1.2-2.1c-2.1-0.3-4.5-1.1-6.9-2.5
							c-10.8-6.2-19.6-21.5-19.6-33.9c0-1.3,0.1-2.5,0.3-3.5c0.1-0.7,0.3-1.4,0.4-2c0.1-0.5,0.3-1,0.5-1.5l-1.3-2.2l5.6-3.2
							c0.2-0.1,0.4-0.2,0.6-0.3l0.3-0.2l0,0c2.3-1.1,5-1.3,8.1-0.5c0.6,0.2,1.3,0.4,2,0.6c1,0.4,2.1,0.9,3.2,1.5
							c0.1,0,0.2,0.1,0.2,0.1c0.5,0.3,1,0.6,1.5,0.9c0.9,0.6,1.9,1.3,2.8,2.1c0.4,0.3,0.8,0.7,1.2,1.1c0.8,0.7,1.6,1.5,2.3,2.3
							c0.3,0.4,0.7,0.8,1,1.2c0.7,0.8,1.4,1.6,2,2.5c0.3,0.4,0.6,0.8,0.9,1.2c0.6,0.9,1.2,1.8,1.7,2.7c0.3,0.4,0.5,0.9,0.8,1.3
							c0.5,0.9,1,1.9,1.5,2.9c0.2,0.5,0.4,0.9,0.6,1.4c0.4,1,0.8,2,1.2,3c0.2,0.5,0.3,1,0.5,1.5c0.3,1.1,0.6,2.1,0.8,3.2
							c0.1,0.5,0.2,1.1,0.3,1.6c0.2,1.2,0.3,2.3,0.4,3.5C294.6,195.2,294.6,195.6,294.6,196.1z"/>
						<g>
							<path class="st31" d="M271.8,160.6l-16.1,9.3l-1.3,0.8l-0.4-1.5l2.1-1.2l13.7-7.9C270.5,160.1,271.1,160.4,271.8,160.6z"/>
							<path class="st31" d="M276.7,163.2l-19.5,11.3l-0.4-1.5l18.5-10.7C275.7,162.6,276.2,162.9,276.7,163.2z"/>
							<path class="st31" d="M280.7,166.4L260,178.3l-0.4-1.5l19.9-11.5C279.9,165.7,280.3,166,280.7,166.4z"/>
							<path class="st31" d="M284,169.9l-21.2,12.2l-0.4-1.5l20.6-11.9C283.3,169.1,283.7,169.5,284,169.9z"/>
							<path class="st31" d="M286.9,173.7L265.6,186l-0.4-1.5l20.8-12C286.3,172.8,286.6,173.3,286.9,173.7z"/>
							<path class="st31" d="M289.4,177.7l-21,12.1l-0.4-1.5l20.6-11.9C288.9,176.8,289.1,177.3,289.4,177.7z"/>
							<path class="st31" d="M291.4,181.9l-20.2,11.7l-0.4-1.5l20-11.6C291,181,291.3,181.5,291.4,181.9z"/>
							<path class="st31" d="M293.1,186.4l-19.1,11l-0.4-1.5l19-11C292.8,185.5,292.9,186,293.1,186.4z"/>
							<path class="st31" d="M294.2,191.2l-17.4,10.1l-0.4-1.5l17.5-10.1C294,190.2,294.1,190.7,294.2,191.2z"/>
							<path class="st31" d="M294.6,196.1c0,0.1,0,0.2,0,0.3l-15,8.7l-0.4-1.5l15.4-8.9C294.6,195.2,294.6,195.6,294.6,196.1z"/>
							<path class="st31" d="M294.2,200.4c-0.1,0.7-0.3,1.4-0.5,2.1l-11.3,6.5l-0.4-1.5L294.2,200.4z"/>
						</g>
						<ellipse transform="matrix(0.866 -0.5 0.5 0.866 -57.8937 159.9113)" class="st32" cx="269.4" cy="188" rx="16" ry="27.7"/>
						<path class="st30" d="M273,172.4c-0.7,0-1.4,0-2,0c0.7,0.6,1.5,1.3,2.2,2l1.2-0.7C273.9,173.3,273.5,172.8,273,172.4z
							 M255.7,169.9c0,0,0,0.1,0,0.1c0.1,0,0.3,0.1,0.4,0.1c0.2-0.3,0.4-0.5,0.5-0.8L255.7,169.9z M273,172.4c-0.7,0-1.4,0-2,0
							c0.7,0.6,1.5,1.3,2.2,2l1.2-0.7C273.9,173.3,273.5,172.8,273,172.4z M255.7,170c0.1,0,0.3,0.1,0.4,0.1
							c0.2-0.3,0.4-0.5,0.5-0.8l-1,0.5C255.7,170,255.7,170,255.7,170z M285.4,196.3c-0.1-0.5-0.1-1.1-0.2-1.6
							c-0.2-1.1-0.4-2.2-0.8-3.3c-0.1-0.5-0.3-1-0.5-1.5c-0.3-1-0.7-2-1.1-3c-0.2-0.5-0.4-1-0.6-1.4c-0.4-1-0.9-1.9-1.4-2.9
							c-0.2-0.5-0.5-0.9-0.8-1.3c-0.5-0.9-1.1-1.8-1.7-2.7c-0.3-0.4-0.6-0.8-0.9-1.2c-0.6-0.9-1.3-1.7-2-2.5c-0.4-0.4-0.7-0.8-1-1.1
							c-0.4-0.5-0.9-0.9-1.3-1.3c-0.4-0.3-0.7-0.7-1.1-1c-0.4-0.4-0.8-0.7-1.2-1c-1-0.8-1.9-1.4-2.9-2c0,0,0,0-0.1,0
							c-0.5-0.3-1-0.6-1.5-0.8c-1.4-0.7-2.8-1.1-4.1-1.3c-0.5-0.1-0.9-0.1-1.4-0.1c-0.7,0-1.3,0.1-1.9,0.2c-1.1,0.3-1.9,0.8-2.6,1.5
							L256,168l0,0c-0.5,0.5-0.9,1.1-1.2,1.7c-0.1,0.3-0.3,0.5-0.4,0.8v0c-0.9,2.2-1,4.6-1,6.1c0,10.7,7.5,24.2,16.6,30.2
							c0.4,0.3,0.8,0.5,1.2,0.8c2.5,1.5,4.9,2.2,7,2.2c0.7,0,1.4-0.1,2-0.3c0.8-0.2,1.5-0.6,2.1-1c0.3-0.2,0.6-0.5,0.8-0.8
							c0.5-0.5,0.8-1.1,1.1-1.7v0c0.7-1.4,1-3,1.2-4.4c0.1-0.7,0.1-1.3,0.1-1.8c0-0.2,0-0.4,0-0.6
							C285.6,198.3,285.5,197.3,285.4,196.3z M283.9,202.6c-0.4,1.8-1.1,3.8-2.6,4.9c-0.8,0.6-1.8,1-3.1,1c-0.5,0-0.9,0-1.4-0.1h0
							c-1.3-0.2-2.7-0.7-4.2-1.5h0c-0.2-0.1-0.5-0.2-0.7-0.4c-9.3-5.4-17.2-19-17.2-29.8c0-1.3,0.1-3.4,0.8-5.3
							c0.2-0.4,0.4-0.9,0.6-1.2c0.2-0.3,0.4-0.5,0.5-0.8l0,0c0.7-0.9,1.7-1.5,3.1-1.8h0c0.3,0,0.6-0.1,1-0.1c1.2,0,2.6,0.3,4,0.9
							c0.5,0.2,1.1,0.5,1.7,0.8c0.2,0.1,0.4,0.2,0.6,0.4c0.8,0.5,1.6,1,2.4,1.6c0.4,0.3,0.9,0.7,1.3,1c0.1,0.1,0.2,0.1,0.3,0.2h0
							c0.7,0.6,1.5,1.3,2.2,2c0.4,0.4,0.7,0.8,1.1,1.1c0.7,0.8,1.4,1.6,2,2.5c0.3,0.4,0.6,0.8,0.9,1.2c0.6,0.9,1.2,1.8,1.7,2.7
							c0.3,0.4,0.5,0.9,0.8,1.3c0.5,0.9,1,1.9,1.4,2.9c0.2,0.5,0.4,0.9,0.6,1.4c0.4,1,0.8,2,1.1,3v0c0.2,0.5,0.3,1,0.5,1.5
							c0.3,1.1,0.5,2.2,0.7,3.3c0.1,0.5,0.2,1.1,0.2,1.6c0.1,0.8,0.1,1.5,0.1,2.2c0,0.4,0,0.9,0,1.4
							C284.1,201.3,284.1,201.9,283.9,202.6z M255.7,169.9c0,0,0,0.1,0,0.1c0.1,0,0.3,0.1,0.4,0.1c0.2-0.3,0.4-0.5,0.5-0.8
							L255.7,169.9z M273,172.4c-0.7,0-1.4,0-2,0c0.7,0.6,1.5,1.3,2.2,2l1.2-0.7C273.9,173.3,273.5,172.8,273,172.4z"/>
						<g>
							<path class="st30" d="M274.9,191.5c-0.2-0.5-0.4-0.9-0.7-1.4c-0.6-0.9-1.3-1.7-2.1-2.5c-0.4-0.4-0.8-0.7-1.2-1
								c-0.3-0.2-0.6-0.5-0.9-0.7c-0.8-0.5-1.4-1-1.8-1.4c-0.3-0.4-0.5-0.8-0.5-1.3c0-0.1,0-0.2,0-0.2c0.1-0.3,0.3-0.4,0.6-0.3
								c0.3,0,0.8,0.2,1.2,0.5c0.2,0.1,0.3,0.2,0.5,0.3c0.9,0.6,1.7,1.3,2.5,2.3c0.1,0.1,0.2,0.2,0.2,0.3l1.5-1.4l0,0h0l0.4-0.3
								c-0.6-0.9-1.3-1.7-2-2.4c-0.4-0.4-0.8-0.7-1.2-1.1c-0.1-0.1-0.2-0.2-0.4-0.3v-2l-1-0.6l-1.5-0.9l-0.7-0.4v2
								c-0.5-0.2-1-0.3-1.5-0.4h0c-1.1-0.1-1.9,0.3-2.3,1.3c-0.1,0.4-0.2,0.8-0.2,1.3c0,0.2,0,0.4,0,0.5c0.1,1.8,0.8,3.2,1.7,4.4
								l0,0c0,0,0,0,0,0c0.7,0.9,1.5,1.6,2.4,2.3c0.4,0.3,0.9,0.7,1.4,1c0,0,0,0,0,0c1.2,0.9,2,1.6,2.2,2.4c0.1,0.1,0.1,0.3,0.1,0.4
								c0,0.5-0.3,0.7-0.7,0.7c-0.4,0-0.9-0.2-1.4-0.5c-1.1-0.7-2.6-1.8-4-4.1l-2.1,1.6c1.4,2.6,2.8,4.1,4.4,5.2v2.1l3.3,1.9v-2.2
								c1,0.4,2,0.5,2.8,0.3c0.9-0.2,1.4-0.9,1.6-2.2v0c0-0.2,0-0.4,0-0.5C275.5,193.3,275.3,192.4,274.9,191.5z"/>
						</g>
					</g>
				</g>
				<g>
					
						<linearGradient id="SVGID_20_" gradientUnits="userSpaceOnUse" x1="214.3675" y1="641.9948" x2="277.6117" y2="641.9948" gradientTransform="matrix(1 0 0 -1 0 841.8898)">
						<stop  offset="1.694780e-03" style="stop-color:#4BBBBA"/>
						<stop  offset="1" style="stop-color:#49BABA;stop-opacity:0"/>
					</linearGradient>
					<path class="st33" d="M307.9,227.4v-75.6c0,5.3-3.5,10.5-10.5,14.6c-13.9,8-36.5,8-50.5,0c-7-4-10.5-9.3-10.5-14.6v75.6l0,0
						c0,5.3,3.5,10.5,10.5,14.6c13.9,8,36.5,8,50.5,0C304.4,238,307.9,232.7,307.9,227.4z"/>
					
						<linearGradient id="SVGID_21_" gradientUnits="userSpaceOnUse" x1="322.5063" y1="641.9948" x2="278.1134" y2="641.9948" gradientTransform="matrix(1 0 0 -1 0 841.8898)">
						<stop  offset="1.694780e-03" style="stop-color:#4BBBBA"/>
						<stop  offset="1" style="stop-color:#49BABA;stop-opacity:0"/>
					</linearGradient>
					<path class="st34" d="M307.9,227.4v-75.6c0,5.3-3.5,10.5-10.5,14.6c-13.9,8-36.5,8-50.5,0c-7-4-10.5-9.3-10.5-14.6v75.6l0,0
						c0,5.3,3.5,10.5,10.5,14.6c13.9,8,36.5,8,50.5,0C304.4,238,307.9,232.7,307.9,227.4z"/>
					
						<linearGradient id="SVGID_22_" gradientUnits="userSpaceOnUse" x1="272.236" y1="723.184" x2="272.236" y2="652.5648" gradientTransform="matrix(1 0 0 -1 0 841.8898)">
						<stop  offset="1.694780e-03" style="stop-color:#4BBBBA"/>
						<stop  offset="1" style="stop-color:#49BABA;stop-opacity:0"/>
					</linearGradient>
					<ellipse class="st35" cx="272.2" cy="151.8" rx="35.7" ry="20.6"/>
				</g>
			</g>
			<path class="st10" d="M241.9,194.8L241.9,194.8c-1.5-0.9-2.4-2.5-2.4-4.2v-21.9c0-0.7,0.8-1.2,1.4-0.8l0,0
				c1.5,0.9,2.5,2.5,2.5,4.3V194C243.4,194.7,242.6,195.2,241.9,194.8z"/>
			<path class="st10" d="M241.9,209.6L241.9,209.6c-1.5-0.9-2.4-2.5-2.4-4.2v-4.7c0-0.7,0.8-1.2,1.4-0.8l0,0
				c1.5,0.9,2.5,2.5,2.5,4.3v4.5C243.4,209.5,242.6,209.9,241.9,209.6z"/>
		</g>
		<g>
			<path class="st8" d="M110.3,163.6v-31.9H38.9v31.9l0,0c0,5.3,3.5,10.5,10.4,14.6c13.9,8,36.5,8,50.4,0
				C106.8,174.1,110.3,168.9,110.3,163.6z"/>
			
				<linearGradient id="SVGID_23_" gradientUnits="userSpaceOnUse" x1="69.2873" y1="683.9547" x2="122.9178" y2="683.9547" gradientTransform="matrix(1 0 0 -1 0 841.8898)">
				<stop  offset="0" style="stop-color:#FFFFFF;stop-opacity:0"/>
				<stop  offset="1" style="stop-color:#653089"/>
			</linearGradient>
			<path class="st36" d="M110.3,163.6v-31.9H38.9v31.9l0,0c0,5.3,3.5,10.5,10.4,14.6c13.9,8,36.5,8,50.4,0
				C106.8,174.1,110.3,168.9,110.3,163.6z"/>
			<ellipse class="st10" cx="74.6" cy="131.7" rx="35.7" ry="20.6"/>
			<g>
				
					<linearGradient id="SVGID_24_" gradientUnits="userSpaceOnUse" x1="74.606" y1="747.2928" x2="74.606" y2="676.6735" gradientTransform="matrix(1 0 0 -1 0 841.8898)">
					<stop  offset="1.694780e-03" style="stop-color:#4BBBBA"/>
					<stop  offset="1" style="stop-color:#49BABA;stop-opacity:0"/>
				</linearGradient>
				<ellipse class="st37" cx="74.6" cy="127.7" rx="35.7" ry="20.6"/>
				<g>
					<circle class="st38" cx="97.8" cy="70.3" r="2.4"/>
					<circle class="st38" cx="95.5" cy="121.5" r="2.4"/>
					<path class="st38" d="M57.1,103.2c0,1.3-1.1,2.4-2.4,2.4c-1.3,0-2.4-1.1-2.4-2.4c0-1.3,1.1-2.4,2.4-2.4
						C56,100.8,57.1,101.9,57.1,103.2z"/>
					<path class="st38" d="M94.6,60.3c0,0.8-0.7,1.5-1.5,1.5s-1.5-0.7-1.5-1.5s0.7-1.5,1.5-1.5S94.6,59.4,94.6,60.3z"/>
					<path class="st38" d="M87.9,127.7c0,0.8-0.7,1.5-1.5,1.5s-1.5-0.7-1.5-1.5c0-0.8,0.7-1.5,1.5-1.5S87.9,126.9,87.9,127.7z"/>
					<path class="st38" d="M55.9,58.1c0,0.8-0.7,1.5-1.5,1.5s-1.5-0.7-1.5-1.5s0.7-1.5,1.5-1.5S55.9,57.3,55.9,58.1z"/>
					<path class="st38" d="M105.7,102.1c0,0.8-0.7,1.5-1.5,1.5s-1.5-0.7-1.5-1.5s0.7-1.5,1.5-1.5S105.7,101.3,105.7,102.1z"/>
					<path class="st38" d="M52.2,123.9c0,0.8-0.7,1.5-1.5,1.5s-1.5-0.7-1.5-1.5s0.7-1.5,1.5-1.5S52.2,123,52.2,123.9z"/>
					<g>
						<path class="st38" d="M97,96.4c0,0.1,0,0.2,0,0.3c0,1.4-0.1,2.7-0.4,3.9c-0.1,0.7-0.3,1.4-0.5,2.1c-0.9,2.8-2.5,4.9-4.5,6.1
							l0,0l-0.2,0.1c-0.1,0-0.2,0.1-0.3,0.2l-5.5,3.2l-1.2-2.1c-2.1-0.3-4.5-1.1-6.9-2.5c-10.8-6.2-19.6-21.5-19.6-33.9
							c0-1.3,0.1-2.5,0.3-3.5c0.1-0.7,0.3-1.4,0.4-2c0.1-0.5,0.3-1,0.5-1.5l-1.3-2.2l5.6-3.2c0.2-0.1,0.4-0.2,0.6-0.3l0.3-0.2l0,0
							c2.3-1.1,5-1.3,8.1-0.5c0.6,0.2,1.3,0.4,2,0.6c1.1,0.4,2.1,0.9,3.2,1.5c0.1,0,0.2,0.1,0.2,0.1c0.5,0.3,1,0.6,1.4,0.9
							c0.9,0.6,1.9,1.3,2.8,2.1c0.4,0.3,0.8,0.7,1.2,1.1c0.8,0.7,1.6,1.5,2.3,2.3c0.3,0.4,0.7,0.8,1,1.2c0.7,0.8,1.4,1.6,2,2.5
							c0.3,0.4,0.6,0.8,0.9,1.2c0.6,0.9,1.2,1.8,1.7,2.7c0.3,0.4,0.5,0.9,0.8,1.3c0.5,0.9,1,1.9,1.4,2.9c0.2,0.5,0.4,0.9,0.6,1.4
							c0.4,1,0.8,2,1.2,3c0.2,0.5,0.3,1,0.5,1.5c0.3,1.1,0.6,2.1,0.8,3.2c0.1,0.5,0.2,1.1,0.3,1.6c0.2,1.2,0.3,2.3,0.4,3.5
							C97,95.4,97,95.9,97,96.4z"/>
						
							<linearGradient id="SVGID_25_" gradientUnits="userSpaceOnUse" x1="72.1657" y1="766.9301" x2="93.061" y2="726.702" gradientTransform="matrix(1 0 0 -1 0 841.8898)">
							<stop  offset="0" style="stop-color:#FFFFFF;stop-opacity:0"/>
							<stop  offset="1" style="stop-color:#653089"/>
						</linearGradient>
						<path class="st39" d="M97,96.4c0,0.1,0,0.2,0,0.3c0,1.4-0.1,2.7-0.4,3.9c-0.1,0.7-0.3,1.4-0.5,2.1c-0.9,2.8-2.5,4.9-4.5,6.1
							l0,0l-0.2,0.1c-0.1,0-0.2,0.1-0.3,0.2l-5.5,3.2l-1.2-2.1c-2.1-0.3-4.5-1.1-6.9-2.5c-10.8-6.2-19.6-21.5-19.6-33.9
							c0-1.3,0.1-2.5,0.3-3.5c0.1-0.7,0.3-1.4,0.4-2c0.1-0.5,0.3-1,0.5-1.5l-1.3-2.2l5.6-3.2c0.2-0.1,0.4-0.2,0.6-0.3l0.3-0.2l0,0
							c2.3-1.1,5-1.3,8.1-0.5c0.6,0.2,1.3,0.4,2,0.6c1.1,0.4,2.1,0.9,3.2,1.5c0.1,0,0.2,0.1,0.2,0.1c0.5,0.3,1,0.6,1.4,0.9
							c0.9,0.6,1.9,1.3,2.8,2.1c0.4,0.3,0.8,0.7,1.2,1.1c0.8,0.7,1.6,1.5,2.3,2.3c0.3,0.4,0.7,0.8,1,1.2c0.7,0.8,1.4,1.6,2,2.5
							c0.3,0.4,0.6,0.8,0.9,1.2c0.6,0.9,1.2,1.8,1.7,2.7c0.3,0.4,0.5,0.9,0.8,1.3c0.5,0.9,1,1.9,1.4,2.9c0.2,0.5,0.4,0.9,0.6,1.4
							c0.4,1,0.8,2,1.2,3c0.2,0.5,0.3,1,0.5,1.5c0.3,1.1,0.6,2.1,0.8,3.2c0.1,0.5,0.2,1.1,0.3,1.6c0.2,1.2,0.3,2.3,0.4,3.5
							C97,95.4,97,95.9,97,96.4z"/>
						<ellipse transform="matrix(0.866 -0.5 0.5 0.866 -34.5056 47.735)" class="st40" cx="71.8" cy="88.3" rx="16" ry="27.7"/>
						<ellipse transform="matrix(0.866 -0.5 0.5 0.866 -34.5058 47.7349)" class="st41" cx="71.8" cy="88.3" rx="12.6" ry="21.8"/>
						<ellipse transform="matrix(0.866 -0.5 0.5 0.866 -34.5056 47.735)" class="st41" cx="71.8" cy="88.3" rx="8.8" ry="15.2"/>
						<path class="st42" d="M78.2,91.9c0,4.1-2.9,5.7-6.4,3.7c-3.5-2-6.4-7-6.4-11s2.9-5.7,6.4-3.7C75.3,82.9,78.2,87.9,78.2,91.9z"
							/>
						<path class="st10" d="M74.3,89.7c0,1.6-1.1,2.2-2.5,1.5s-2.5-2.7-2.5-4.3s1.1-2.2,2.5-1.5C73.2,86.2,74.3,88.1,74.3,89.7z"/>
					</g>
				</g>
				<g>
					
						<linearGradient id="SVGID_26_" gradientUnits="userSpaceOnUse" x1="16.7364" y1="741.7247" x2="79.9805" y2="741.7247" gradientTransform="matrix(1 0 0 -1 0 841.8898)">
						<stop  offset="1.694780e-03" style="stop-color:#4BBBBA"/>
						<stop  offset="1" style="stop-color:#49BABA;stop-opacity:0"/>
					</linearGradient>
					<path class="st43" d="M110.3,127.7V52.1c0,5.3-3.5,10.5-10.4,14.6c-13.9,8-36.5,8-50.4,0c-7-4-10.4-9.3-10.4-14.6v75.6l0,0
						c0,5.3,3.5,10.5,10.4,14.6c13.9,8,36.5,8,50.4,0C106.8,138.2,110.3,133,110.3,127.7z"/>
					
						<linearGradient id="SVGID_27_" gradientUnits="userSpaceOnUse" x1="124.875" y1="741.7247" x2="80.4822" y2="741.7247" gradientTransform="matrix(1 0 0 -1 0 841.8898)">
						<stop  offset="1.694780e-03" style="stop-color:#4BBBBA"/>
						<stop  offset="1" style="stop-color:#49BABA;stop-opacity:0"/>
					</linearGradient>
					<path class="st44" d="M110.3,127.7V52.1c0,5.3-3.5,10.5-10.4,14.6c-13.9,8-36.5,8-50.4,0c-7-4-10.4-9.3-10.4-14.6v75.6l0,0
						c0,5.3,3.5,10.5,10.4,14.6c13.9,8,36.5,8,50.4,0C106.8,138.2,110.3,133,110.3,127.7z"/>
					
						<linearGradient id="SVGID_28_" gradientUnits="userSpaceOnUse" x1="74.606" y1="822.9156" x2="74.606" y2="752.2964" gradientTransform="matrix(1 0 0 -1 0 841.8898)">
						<stop  offset="1.694780e-03" style="stop-color:#4BBBBA"/>
						<stop  offset="1" style="stop-color:#49BABA;stop-opacity:0"/>
					</linearGradient>
					<ellipse class="st45" cx="74.6" cy="52.1" rx="35.7" ry="20.6"/>
				</g>
			</g>
			<path class="st10" d="M44.3,95.1L44.3,95.1c-1.5-0.9-2.4-2.5-2.4-4.2V69c0-0.7,0.8-1.2,1.4-0.8l0,0c1.5,0.9,2.5,2.5,2.5,4.3v21.7
				C45.7,95,44.9,95.5,44.3,95.1z"/>
			<path class="st10" d="M44.3,109.8L44.3,109.8c-1.5-0.9-2.4-2.5-2.4-4.2V101c0-0.7,0.8-1.2,1.4-0.8l0,0c1.5,0.9,2.5,2.5,2.5,4.3
				v4.5C45.7,109.7,44.9,110.2,44.3,109.8z"/>
		</g>
		<g>
			<path class="st46" d="M183.4,218c0,0-5.9,6.3-6.3,12.5l1.1,2.5l2.4-1.7c0,0,1.7-8.2,4.7-10.6L183.4,218z"/>
			<path class="st47" d="M197.2,291.3c0,0,0.4,3.9-1.5,3.7c-2.2-0.2-9-4.8-7.5-6.3c1.5-1.5,7.2,1.2,7.2,1.2L197.2,291.3z"/>
			<path class="st47" d="M185.1,297.1c0,0,0.4,3.9-1.5,3.7c-2.2-0.2-9-4.8-7.5-6.3c1.5-1.5,7.2,1.2,7.2,1.2L185.1,297.1z"/>
			<rect x="186.8" y="200.5" class="st48" width="4.1" height="5.7"/>
			<path class="st46" d="M182.5,231.4c0,0-6.5,14.9-1.6,66.1c0,0.3,0.2,0.5,0.4,0.6c0.9,0.5,3,1.4,4.1-1.5c0-0.1,0-0.2,0-0.2
				l4.2-53.6c0-0.9,0.5-0.9,0.6,0l2.6,49c0,0.4,0.2,0.7,0.6,0.8c1.1,0.4,3.6,0.9,4.1-2.7c0,0,4.4-53-0.7-60.2L182.5,231.4z"/>
			<path class="st47" d="M196.9,228c-0.1,0.2-0.3,0.4-0.4,0.6c-1.5,1.5-5.5,4.3-13.5,1.4c-0.2-0.1-0.3-0.2-0.5-0.3v1.6
				c0.1,0.1,0.3,0.2,0.5,0.3c8,2.9,12,0.1,13.5-1.4c0.2-0.2,0.3-0.4,0.4-0.6V228z"/>
			<path class="st10" d="M213.1,179.4c0,0,0-3.5,0.5-3.5c0.3,0,0.3,1.1,0.3,1.1s0.4-2.6,1-2.4c0.2,0,0,1.6,0,1.6s0.2-0.9,1.7,0
				c0.5,0.3,0.3,1.1-1.4,3.8L213.1,179.4z"/>
			<path class="st49" d="M196,202.7c0,0,12.1-1,17-23.5c0,0,1.3-0.2,2.3,0.8c0,0-0.7,27-17.5,32.2L196,202.7z"/>
			<path class="st50" d="M186.8,204.3l4.1-0.9l6.4-0.8c1.6-0.2,2.7,2.1,2.8,4.5c0.2,4.6-2.9,20.3-2.9,20.3c0,0.6-0.3,1.2-0.7,1.7
				c-1.5,1.5-5.5,4.3-13.5,1.4c-0.5-0.2-0.9-0.6-1-1.2l-3-18.6c-0.2-1,0.3-1.9,1.1-2.5L186.8,204.3z"/>
			<path class="st10" d="M181.8,193.3c0,0,0.5,5.5,2.8,8.4c2.3,2.8,6.7-1.9,7.4-3.2s1.7-9.9-5.1-9.9
				C182.3,188.5,181.5,191.3,181.8,193.3z"/>
			<path class="st46" d="M188.4,196.7c0,0-2.3-1.6-3.2-4.4c0,0-0.5-0.3-3.3,2.1c0,0-3.2,0-1.7-3.4c1.5-3.4,7.6-7.6,10.5-4.2
				c0,0,5.6-0.9,4.5,6.3c-1.4,9.5-5.9,8-7,5.8C187.1,196.7,188.4,196.7,188.4,196.7z"/>
			<path class="st10" d="M187,195.6c0,0,0.9-1.8,1.7-0.7s-0.2,3.3-1.8,3.6L187,195.6z"/>
			<polygon class="st46" points="161.6,202.6 170.2,211.2 178.9,206.1 170.2,197.2 			"/>
			<polyline class="st51" points="169.5,207.2 169.5,205.3 171.3,205.3 171.3,201.2 			"/>
			<polyline class="st51" points="169.6,202.4 171.2,200.7 173,202.6 			"/>
			<path class="st10" d="M165.4,206.3c0,0,0.7-0.8,1.2-1.3c0.2-0.2,0.4,0,0.4,0.2l-0.4,1.3c0,0,1.8-0.5,0.8,2.5l-1.8,0.5
				L165.4,206.3z"/>
			<path class="st49" d="M167.5,209c0,0,9.5,17,3.8,18c-5.6,1.1-5.9-17.5-5.9-17.5S166,208.7,167.5,209z"/>
			<path class="st49" d="M180.1,208.2c0,0-2.5,1.3-6.1,6.3c-4.8,6.8-7,10.9-2.5,12.4c1.1,0.4,8.9-7.8,8.9-7.8
				S183.5,212.4,180.1,208.2z"/>
			<path class="st49" d="M186,204.7l0.8-1.4c0,0,1.4-0.9,4.1-0.9l1,0.8C191.8,203.3,191.6,204.2,186,204.7z"/>
		</g>
		<g>
			<polygon class="st8" points="103.1,188 72.4,257.2 69.6,255.5 69.6,215.3 			"/>
			<polygon class="st8" points="105.9,189.6 105.9,237.9 72.4,257.2 72.4,217 			"/>
			
				<linearGradient id="SVGID_29_" gradientUnits="userSpaceOnUse" x1="72.8378" y1="651.1559" x2="110.7224" y2="575.3869" gradientTransform="matrix(1 0 0 -1 0 841.8898)">
				<stop  offset="0" style="stop-color:#FFFFFF;stop-opacity:0"/>
				<stop  offset="1" style="stop-color:#653089"/>
			</linearGradient>
			<polygon class="st52" points="105.9,189.6 105.9,237.9 72.4,257.2 72.4,217 			"/>
		</g>
		<g>
			<polygon class="st8" points="157,219.1 126.4,288.3 123.6,286.6 123.6,246.4 			"/>
			<polygon class="st8" points="159.8,220.7 159.8,269 126.4,288.3 126.4,248.1 			"/>
			
				<linearGradient id="SVGID_30_" gradientUnits="userSpaceOnUse" x1="98.6283" y1="587.3948" x2="201.5789" y2="587.3948" gradientTransform="matrix(1 0 0 -1 0 841.8898)">
				<stop  offset="0" style="stop-color:#FFFFFF;stop-opacity:0"/>
				<stop  offset="1" style="stop-color:#653089"/>
			</linearGradient>
			<polygon class="st53" points="159.8,220.7 159.8,269 126.4,288.3 126.4,248.1 			"/>
		</g>
		<polygon class="st8" points="126.4,250.7 69.6,218 159.8,220.7 159.8,223.4 		"/>
		
			<linearGradient id="SVGID_31_" gradientUnits="userSpaceOnUse" x1="98.6283" y1="607.5197" x2="201.5783" y2="607.5197" gradientTransform="matrix(1 0 0 -1 0 841.8898)">
			<stop  offset="0" style="stop-color:#FFFFFF;stop-opacity:0"/>
			<stop  offset="1" style="stop-color:#653089"/>
		</linearGradient>
		<polygon class="st54" points="126.4,250.7 69.6,218 159.8,220.7 159.8,223.4 		"/>
		<polygon class="st10" points="126.4,248.1 69.6,215.3 103.1,188 159.8,220.7 		"/>
		<polygon class="st46" points="125.6,243.6 76.2,215 103.9,192.5 153.2,221 		"/>
		
			<linearGradient id="SVGID_32_" gradientUnits="userSpaceOnUse" x1="110.8405" y1="647.0067" x2="108.1927" y2="620.9062" gradientTransform="matrix(1 0 0 -1 0 841.8898)">
			<stop  offset="3.946110e-03" style="stop-color:#FFFFFF;stop-opacity:0"/>
			<stop  offset="1" style="stop-color:#FCC872"/>
		</linearGradient>
		<path class="st55" d="M113.1,218.6l-18.8-10.9c-0.4-0.2-0.5-0.9-0.1-1.2l9.9-8.1c0.5-0.4,1.3-0.5,1.9-0.1l18.6,10.7
			c0.6,0.3,0.6,1.1,0.1,1.5l-9.7,7.9C114.4,218.9,113.7,218.9,113.1,218.6z"/>
		
			<linearGradient id="SVGID_33_" gradientUnits="userSpaceOnUse" x1="101.9141" y1="631.007" x2="95.2632" y2="618.3932" gradientTransform="matrix(1 0 0 -1 0 841.8898)">
			<stop  offset="0" style="stop-color:#A56BAA;stop-opacity:0"/>
			<stop  offset="1" style="stop-color:#A56BAA"/>
		</linearGradient>
		<path class="st56" d="M104.7,225.3l-18.8-10.9c-0.4-0.2-0.5-0.9-0.1-1.2l4.9-3.9c0.5-0.4,1.3-0.5,1.9-0.1l18.6,10.7
			c0.6,0.3,0.6,1.1,0.1,1.5l-4.7,3.7C106,225.6,105.3,225.7,104.7,225.3z"/>
		<g>
			
				<linearGradient id="SVGID_34_" gradientUnits="userSpaceOnUse" x1="117.5304" y1="621.194" x2="111.3412" y2="609.4557" gradientTransform="matrix(1 0 0 -1 0 841.8898)">
				<stop  offset="1.694780e-03" style="stop-color:#4BBBBA"/>
				<stop  offset="1" style="stop-color:#49BABA;stop-opacity:0"/>
			</linearGradient>
			<path class="st57" d="M114.2,231l-6.1-3.5c-0.4-0.2-0.5-0.9-0.1-1.2l4.9-3.9c0.5-0.4,1.3-0.5,1.9-0.1l5.9,3.4
				c0.6,0.3,0.6,1.1,0.1,1.5l-4.7,3.7C115.5,231.3,114.8,231.4,114.2,231z"/>
			
				<linearGradient id="SVGID_35_" gradientUnits="userSpaceOnUse" x1="127.2987" y1="621.432" x2="121.3133" y2="601.9792" gradientTransform="matrix(1 0 0 -1 0 841.8898)">
				<stop  offset="1.694780e-03" style="stop-color:#EA5351"/>
				<stop  offset="1" style="stop-color:#EA5351;stop-opacity:0"/>
			</linearGradient>
			<path class="st58" d="M123.8,236.4l-6.5-3.9c-0.4-0.2-0.5-0.9-0.1-1.2l4.9-3.9c0.5-0.4,1.3-0.5,1.9-0.1l6.3,3.7
				c0.6,0.3,0.6,1.1,0.1,1.5l-4.7,3.7C125.1,236.7,124.4,236.8,123.8,236.4z"/>
		</g>
		<polygon class="st8" points="126.4,250.7 126.4,248.1 69.6,215.3 69.6,218 		"/>
		<path class="st59" d="M98,207.1c0.1-0.1,9.1-0.7,9.1-0.7l1.8,3.2h10.9l-2.4-1.1"/>
		<line class="st59" x1="119.8" y1="209.6" x2="119.8" y2="211.5"/>
		<ellipse class="st40" cx="130" cy="213.3" rx="1.1" ry="0.7"/>
		<ellipse class="st60" cx="133.3" cy="215.2" rx="1.1" ry="0.7"/>
		<path class="st40" d="M137.4,217.6c-0.4,0.3-1.2,0.3-1.6,0c-0.5-0.3-0.5-0.7,0-0.9c0.4-0.3,1.2-0.3,1.6,0
			C137.8,216.9,137.8,217.3,137.4,217.6z"/>
		<path class="st40" d="M140.7,219.4c-0.5,0.3-1.2,0.3-1.6,0c-0.5-0.3-0.5-0.7,0-0.9c0.5-0.3,1.2-0.3,1.6,0
			C141.1,218.8,141.1,219.2,140.7,219.4z"/>
		<path class="st40" d="M144,221.3c-0.5,0.3-1.2,0.3-1.6,0c-0.5-0.3-0.5-0.7,0-0.9c0.5-0.3,1.2-0.3,1.6,0
			C144.4,220.6,144.4,221.1,144,221.3z"/>
		<path class="st40" d="M128.1,215.9c-0.4,0.3-1.2,0.3-1.6,0c-0.4-0.3-0.4-0.7,0-0.9c0.4-0.3,1.2-0.3,1.6,0
			C128.5,215.2,128.5,215.6,128.1,215.9z"/>
		<path class="st40" d="M131.4,217.7c-0.5,0.3-1.2,0.3-1.6,0c-0.5-0.3-0.5-0.7,0-0.9c0.5-0.3,1.2-0.3,1.6,0
			C131.8,217.1,131.8,217.5,131.4,217.7z"/>
		<path class="st40" d="M134.7,219.6c-0.5,0.3-1.2,0.3-1.6,0c-0.5-0.3-0.5-0.7,0-0.9c0.5-0.3,1.2-0.3,1.6,0
			C135.1,218.9,135.1,219.4,134.7,219.6z"/>
		<path class="st60" d="M138,221.5c-0.4,0.3-1.2,0.3-1.6,0c-0.4-0.3-0.4-0.7,0-0.9c0.5-0.3,1.2-0.3,1.6,0S138.4,221.2,138,221.5z"/>
		<path class="st60" d="M141.2,223.4c-0.5,0.3-1.2,0.3-1.6,0c-0.5-0.3-0.5-0.7,0-0.9c0.5-0.3,1.2-0.3,1.6,0
			C141.7,222.7,141.7,223.1,141.2,223.4z"/>
		<path class="st60" d="M125.4,217.9c-0.4,0.3-1.2,0.3-1.6,0c-0.4-0.3-0.4-0.7,0-0.9c0.4-0.3,1.2-0.3,1.6,0
			C125.8,217.2,125.8,217.7,125.4,217.9z"/>
		<path class="st40" d="M128.6,219.8c-0.5,0.3-1.2,0.3-1.6,0c-0.4-0.3-0.4-0.7,0-0.9c0.4-0.3,1.2-0.3,1.6,0
			C129.1,219.1,129.1,219.5,128.6,219.8z"/>
		<ellipse class="st60" cx="131.1" cy="221.2" rx="1.1" ry="0.7"/>
		<path class="st40" d="M135.2,223.6c-0.5,0.3-1.2,0.3-1.6,0c-0.5-0.3-0.5-0.7,0-0.9c0.5-0.3,1.2-0.3,1.6,0
			C135.7,222.9,135.7,223.3,135.2,223.6z"/>
		<path class="st40" d="M138.5,225.4c-0.5,0.3-1.2,0.3-1.6,0c-0.4-0.3-0.4-0.7,0-0.9c0.5-0.3,1.2-0.3,1.6,0
			C139,224.8,139,225.2,138.5,225.4z"/>
		<path class="st40" d="M122.6,220c-0.4,0.3-1.2,0.3-1.6,0s-0.4-0.7,0-0.9c0.4-0.3,1.2-0.3,1.6,0C123.1,219.3,123.1,219.7,122.6,220
			z"/>
		<path class="st40" d="M125.9,221.9c-0.4,0.3-1.2,0.3-1.6,0c-0.4-0.3-0.4-0.7,0-0.9c0.4-0.3,1.2-0.3,1.6,0
			C126.4,221.2,126.4,221.6,125.9,221.9z"/>
		<path class="st40" d="M129.2,223.7c-0.4,0.3-1.2,0.3-1.6,0c-0.4-0.3-0.4-0.7,0-0.9c0.4-0.3,1.2-0.3,1.6,0
			C129.7,223.1,129.7,223.5,129.2,223.7z"/>
		<path class="st40" d="M132.5,225.6c-0.5,0.3-1.2,0.3-1.6,0c-0.5-0.3-0.5-0.7,0-0.9c0.5-0.3,1.2-0.3,1.6,0
			C133,224.9,133,225.4,132.5,225.6z"/>
		<path class="st60" d="M135.8,227.5c-0.5,0.3-1.2,0.3-1.6,0c-0.5-0.3-0.5-0.7,0-0.9c0.5-0.3,1.2-0.3,1.6,0
			C136.3,226.8,136.3,227.2,135.8,227.5z"/>
		<ellipse class="st60" cx="119.1" cy="221.6" rx="1.1" ry="0.7"/>
		<ellipse class="st40" cx="122.4" cy="223.5" rx="1.1" ry="0.7"/>
		<path class="st60" d="M126.5,225.8c-0.4,0.3-1.2,0.3-1.6,0s-0.4-0.7,0-0.9c0.4-0.3,1.2-0.3,1.6,0C127,225.1,127,225.5,126.5,225.8
			z"/>
		<ellipse class="st40" cx="129" cy="227.2" rx="1.1" ry="0.7"/>
		<path class="st60" d="M133.1,229.6c-0.5,0.3-1.2,0.3-1.6,0c-0.5-0.3-0.5-0.7,0-0.9c0.5-0.3,1.2-0.3,1.6,0
			C133.6,228.9,133.6,229.3,133.1,229.6z"/>
		<g>
			<line class="st61" x1="91.4" y1="211.2" x2="108.1" y2="221"/>
			<line class="st61" x1="90.2" y1="212.2" x2="106.9" y2="222"/>
			<line class="st61" x1="89" y1="213.2" x2="105.7" y2="222.9"/>
		</g>
		<g>
			<path class="st46" d="M82.8,212.2c0,0,6.2,6.6,6.6,13.2l-1.2,2.6l-2.5-1.8c0,0-1.8-8.6-5-11.2L82.8,212.2z"/>
			<path class="st47" d="M68.2,289.7c0,0-0.4,4.1,1.6,3.9c2.3-0.2,9.6-5.1,7.9-6.6s-7.6,1.2-7.6,1.2L68.2,289.7z"/>
			<path class="st47" d="M81.1,295.7c0,0-0.4,4.1,1.6,3.9c2.3-0.2,9.6-5.1,7.9-6.6s-7.6,1.2-7.6,1.2L81.1,295.7z"/>
			<rect x="75" y="193.7" class="st10" width="4.3" height="6"/>
			<path class="st46" d="M83.8,226.4c0,0,6.9,15.7,1.7,69.7c0,0.3-0.2,0.5-0.4,0.7c-0.9,0.5-3.2,1.5-4.4-1.6c0-0.1-0.1-0.2-0.1-0.3
				l-4.5-56.6c0-0.9-0.5-1-0.6,0L72.8,290c0,0.4-0.3,0.7-0.6,0.9c-1.2,0.5-3.9,1-4.3-2.8c0,0-4.7-55.9,0.8-63.5L83.8,226.4z"/>
			<path class="st47" d="M68.6,222.8c0.1,0.2,0.3,0.5,0.5,0.6c1.6,1.6,5.8,4.5,14.2,1.5c0.2-0.1,0.4-0.2,0.5-0.3v1.7
				c-0.1,0.1-0.3,0.2-0.5,0.3c-8.4,3-12.6,0.1-14.2-1.5c-0.2-0.2-0.3-0.4-0.5-0.6V222.8z"/>
			<path class="st50" d="M79.2,197.7l-4.3-1l-6.8-0.9c-1.6-0.2-2.8,2.2-3,4.7c-0.2,4.9,3,21.5,3,21.5c0,0.7,0.3,1.3,0.8,1.8
				c1.6,1.6,5.8,4.5,14.2,1.5c0.5-0.2,0.9-0.7,1-1.2l3.1-19.6c0.2-1-0.3-2-1.1-2.6L79.2,197.7z"/>
			<path class="st10" d="M84.6,186.1c0,0-0.5,5.9-2.9,8.9s-7.1-2-7.8-3.4s-1.8-10.5,5.4-10.5C84,181.1,84.8,184,84.6,186.1z"/>
			<path class="st46" d="M77.6,189.8c0,0,2.4-1.7,3.4-4.7c0,0,0.5-0.3,3.5,2.2c0,0,3.4,0,1.8-3.5c-1.6-3.5-8-8-11.1-4.5
				c0,0-5.9-1-4.8,6.7c1.5,10.1,6.2,8.4,7.4,6.1C78.9,189.8,77.6,189.8,77.6,189.8z"/>
			<path class="st10" d="M79.1,188.6c0,0-1-1.9-1.8-0.8s0.2,3.5,1.9,3.8L79.1,188.6z"/>
			<path class="st10" d="M114.5,223.1c0.1,0,0.6,0.9,1.1,1.6c0.1,0.2-0.1,0.4-0.3,0.3l-1.2-0.7c0,0,0.1,2-2.8,0.2l-0.1-2
				L114.5,223.1z"/>
			<path class="st49" d="M111.8,222.5c0,0-17.8-10.1-19-4.2c-1.2,5.9,18.4,6.4,18.4,6.4S112,224.1,111.8,222.5z"/>
			<path class="st49" d="M86.3,201.9c0,0,2.7,1.3,6.4,6.6c5.1,7.2,7.4,11.5,2.7,13.1c-1.2,0.4-9.4-8.2-9.4-8.2
				S82.7,206.3,86.3,201.9z"/>
			<path class="st49" d="M80.1,198.3l-0.9-1.5c0,0-1.5-0.9-4.3-1l-1,0.9C73.9,196.7,74.2,197.7,80.1,198.3z"/>
		</g>
	</g>
	
		<linearGradient id="SVGID_36_" gradientUnits="userSpaceOnUse" x1="1153.0984" y1="-2256.2708" x2="1153.0984" y2="-2165.5686" gradientTransform="matrix(-0.999 -4.390000e-02 -4.390000e-02 0.999 1343.0365 2373.54)">
		<stop  offset="1.860120e-03" style="stop-color:#8B4192"/>
		<stop  offset="1" style="stop-color:#2F2142"/>
	</linearGradient>
	<path class="st62" d="M273,89.7c3.5,9.6,16.7,21.9,27.5,17.2c5.3-2.3,8.2-9.8,4.7-14.3c-2.5-3.2-7.1-4-10.4-6.5
		c-2.9-2.2-4.6-5.6-6.9-8.6c-2.2-2.9-5.5-5.6-9.2-5.2c-7.7,0.9-7.7,11.4-5.9,16.9C272.8,89.4,272.9,89.6,273,89.7z"/>
</g>
</svg>
